# xmcd
#
# Track frame offsets: 
#        150
#        12787
#        25968
#        40046
#        52864
#        64734
#        78819
#        91698
#        106018
#        118883
#        132630
#        145626
#        159339
#        172474
#        185589
#        198732
#        211614
#        225006
#        237202
#        250509
#        263834
#        276594
#        289809
#        302319
#        316716
#
# Disc length: 4379 seconds
#
# Revision: 1
# Processed by: cddbd v1.5.2PL0 Copyright (c) Steve Scherf et al.
# Submitted via: ExactAudioCopyFreeDBPlugin 1.0
#
DISCID=46111919
DTITLE=Various Artist - The History Of Rhythm And Blues 1925-1942
DYEAR=2008
DGENRE=Blues
TTITLE0=Louie Lasky - Teasin' Brown Blues
TTITLE1=Leroy Carr and Scrapper Blackwell - Barrelhouse Woman
TTITLE2=Johnnie Temple - Lead Pencil Blues
TTITLE3=Bumble Bee Slim - Policy Dream Blues
TTITLE4=Bill Gaither - Naptown Stomp
TTITLE5=Walter Davis - Sloppy Drunk Again
TTITLE6=Jazz Gillum - Jockey Blues
TTITLE7=Elder Otis Jones - Holy Mountain
TTITLE8=Golden Gate Jubilee Quartet - Standing By The Bedside Of A Nei
TTITLE8=ghbour
TTITLE9=Johnnie Temple - Louise Lousie Blues
TTITLE10=Big Bill Broonzy - Barrelhouse When It Rains
TTITLE11=Sonny Boy Williamson (John Lee 'Sonny Boy' Williamson) - Good
TTITLE11=Morning Little Schoolgirl
TTITLE12=Robert Johnson - Preachin' Blues
TTITLE13=Jimmie Gordon - Number Runner's Blues
TTITLE14=Sonny Boy Williamson (John Lee 'Sonny Boy' Williamson) - Tell
TTITLE14=Me Baby
TTITLE15=Big Bill Broonzy - Rockin' Chair Blues
TTITLE16=Washboard Sam - Diggin' My Potatoes
TTITLE17=Sister Rosetta Tharpe - This Train
TTITLE18=Tampa Red - Don't You Lie To Me
TTITLE19=Sonny Boy Williamson (John Lee 'Sonny Boy' Williamson) - Jivi
TTITLE19=n' The Blues
TTITLE20=Big Bill Broonzy - I Feel So Good
TTITLE21=Big Maceo - Worried Life Blues
TTITLE22=Champion Jack Dupree - Junker Blues
TTITLE23=Doctor Clayton - Ain't No Business We Can Do
TTITLE24=Arthur 'Big Boy' Crudup - Mean Ol' Frisco
EXTD=
EXTT0=
EXTT1=
EXTT2=
EXTT3=
EXTT4=
EXTT5=
EXTT6=
EXTT7=
EXTT8=
EXTT9=
EXTT10=
EXTT11=
EXTT12=
EXTT13=
EXTT14=
EXTT15=
EXTT16=
EXTT17=
EXTT18=
EXTT19=
EXTT20=
EXTT21=
EXTT22=
EXTT23=
EXTT24=
PLAYORDER=
